<?xml version="1.0" standalone="no"?>
<!DOCTYPE svg PUBLIC "-//W3C//DTD SVG 20010904//EN"
 "http://www.w3.org/TR/2001/REC-SVG-20010904/DTD/svg10.dtd">
<svg version="1.0" xmlns="http://www.w3.org/2000/svg"
 width="922.000000pt" height="922.000000pt" viewBox="0 0 922.000000 922.000000"
 preserveAspectRatio="xMidYMid meet">
<metadata>
Created by potrace 1.14, written by Peter Selinger 2001-2017
</metadata>
<g transform="translate(0.000000,922.000000) scale(0.100000,-0.100000)"
fill="#000000" stroke="none">
<path d="M6825 9197 c-105 -51 -139 -110 -156 -269 -7 -71 -8 -144 -1 -238 6
-74 9 -136 7 -138 -1 -1 -52 59 -112 135 -153 191 -205 237 -315 272 -27 9
-47 9 -76 2 -69 -19 -100 -65 -131 -195 -18 -75 -73 -149 -218 -291 -146 -144
-172 -186 -173 -274 -1 -179 98 -252 473 -349 l109 -28 -134 -48 c-191 -69
-289 -117 -347 -171 -116 -109 -103 -219 36 -297 89 -50 144 -123 240 -316 89
-180 112 -209 188 -243 168 -75 292 5 481 310 38 60 72 110 77 111 4 0 7 -55
7 -122 0 -68 5 -168 10 -223 8 -85 15 -111 47 -175 46 -90 84 -120 153 -120
49 0 114 34 155 80 49 55 182 96 407 124 64 9 132 22 150 29 120 51 185 192
143 316 -21 65 -89 168 -199 304 -48 59 -85 107 -83 107 3 0 75 -20 162 -45
223 -64 274 -71 370 -52 88 18 127 46 146 105 14 44 7 86 -28 164 -26 58 -28
72 -27 173 1 74 10 151 28 237 31 152 32 173 7 237 -27 71 -66 117 -124 146
-93 46 -214 30 -446 -61 -64 -25 -124 -48 -133 -51 -11 -3 21 52 79 138 115
173 149 243 162 331 12 84 -1 128 -46 169 -38 32 -35 32 -188 33 -101 1 -117
4 -190 34 -44 18 -134 63 -199 99 -110 61 -125 67 -190 70 -60 3 -79 0 -121
-20z m216 -837 c30 -5 87 -26 127 -46 210 -103 317 -346 254 -575 -32 -116
-97 -203 -205 -278 -97 -66 -251 -96 -369 -72 -247 52 -431 311 -390 550 24
144 77 235 187 323 108 88 255 124 396 98z"/>
<path d="M4012 8578 c-9 -9 -12 -259 -12 -1065 0 -836 -3 -1053 -12 -1053 -7
0 -60 9 -118 19 -270 49 -659 54 -940 11 -594 -89 -1121 -351 -1427 -709 -254
-297 -431 -713 -505 -1186 -29 -189 -32 -616 -5 -800 108 -729 442 -1282 942
-1557 288 -158 593 -252 1010 -309 118 -16 224 -22 493 -26 419 -7 684 9 1162
68 223 27 716 99 788 115 l22 4 0 3250 0 3250 -693 0 c-526 0 -696 -3 -705
-12z m-305 -3189 c43 -5 126 -21 186 -35 l107 -26 0 -1128 c0 -621 -3 -1131
-7 -1133 -5 -3 -66 -15 -138 -28 -181 -32 -444 -32 -593 0 -355 75 -602 259
-747 556 -90 183 -125 348 -125 589 0 178 19 312 66 456 130 404 426 673 821
744 94 17 322 20 430 5z"/>
<path d="M6260 4753 c0 -939 -5 -1775 -10 -1898 -38 -848 -154 -1254 -457
-1600 -143 -165 -330 -307 -695 -531 -115 -70 -207 -128 -205 -129 1 -2 49
-21 107 -44 58 -23 193 -89 300 -145 234 -124 587 -298 687 -337 105 -42 188
-62 233 -54 119 20 441 238 722 489 253 225 398 472 497 846 93 352 132 709
170 1565 18 386 20 630 23 1975 l2 1535 -687 3 -687 2 0 -1677z"/>
</g>
</svg>
