<?xml version="1.0" encoding="UTF-8" standalone="no"?>
<!DOCTYPE svg PUBLIC "-//W3C//DTD SVG 1.1//EN" "http://www.w3.org/Graphics/SVG/1.1/DTD/svg11.dtd">
<svg width="100%" height="100%" viewBox="0 0 602 206" version="1.1" xmlns="http://www.w3.org/2000/svg" xmlns:xlink="http://www.w3.org/1999/xlink" xml:space="preserve" xmlns:serif="http://www.serif.com/" style="fill-rule:evenodd;clip-rule:evenodd;stroke-linejoin:round;stroke-miterlimit:2;">
    <g transform="matrix(1,0,0,1,-3564.6,-487.667)">
        <g transform="matrix(1,0,0,1,3269.32,0)">
            <g transform="matrix(1.3822,0.328383,-0.328383,1.3822,841.963,497.736)">
                <path d="M13.045,27.4C11.434,27.414 9.823,27.378 8.213,27.292C6.261,27.074 4.638,26.91 3.458,25.747C2.105,24.26 1.956,22.017 3.1,20.364C4.807,17.949 6.758,14.941 6.523,13.064C6.307,11.387 6.823,9.789 8.71,9.569C10.077,9.567 11.41,10 12.515,10.805C14.191,12.025 15.82,13.308 17.397,14.65C16.883,13.116 16.417,11.565 16,10C15.6,8.076 15.259,6.482 16,5C16.997,3.259 19.078,2.427 21,3C23.825,3.877 27.287,4.8 29,4C30.528,3.276 32.208,3.274 33,5C33.424,6.299 33.424,7.701 33,9C32.359,10.97 31.643,12.914 30.855,14.829C32.155,13.866 33.485,12.945 34.843,12.065C36.55,11.094 37.96,10.273 39.598,10.52C41.561,10.93 42.996,12.652 43.045,14.657C43.084,17.615 43.273,21.195 44.566,22.575C45.727,23.805 46.248,25.402 44.851,26.688C43.746,27.493 42.414,27.926 41.047,27.924C38.977,27.923 36.907,27.844 34.844,27.686C36.159,28.625 37.445,29.604 38.7,30.624C40.151,31.948 41.367,33.035 41.639,34.669C41.856,36.663 40.662,38.56 38.77,39.226C35.97,40.176 32.623,41.463 31.71,43.119C30.899,44.603 29.541,45.592 27.886,44.661C26.779,43.859 25.956,42.726 25.536,41.425C24.897,39.456 24.333,37.464 23.846,35.453C23.36,36.995 22.826,38.522 22.244,40.032C21.433,41.821 20.776,43.313 19.305,44.077C17.476,44.899 15.303,44.349 14.085,42.756C12.315,40.386 10.058,37.601 8.2,37.244C6.538,36.932 5.178,35.944 5.552,34.084C5.971,32.783 6.794,31.648 7.9,30.845C9.572,29.632 11.288,28.483 13.045,27.4ZM28.865,17.644C28.847,17.627 28.828,17.61 28.808,17.596L28.8,17.596C28.801,17.596 28.825,17.614 28.865,17.644ZM29.011,17.76C28.942,17.709 28.869,17.654 28.792,17.596C25.962,15.469 22.038,15.469 19.208,17.596L19.2,17.596C19.16,17.632 19.12,17.664 19.072,17.696C19.056,17.704 19.048,17.72 19.032,17.728C17.118,19.244 16,21.557 16,23.998C16,28.387 19.611,31.998 24,31.998C28.385,31.998 31.995,28.393 32,24.008C32.005,21.591 30.912,19.298 29.032,17.78C29.025,17.773 29.018,17.767 29.011,17.76ZM29.011,17.76C31.235,19.431 29.258,17.94 28.865,17.644C28.867,17.647 28.87,17.649 28.872,17.652C28.921,17.685 28.967,17.721 29.011,17.76Z" style="fill:rgb(255,115,141);"/>
            </g>
            <g transform="matrix(1.3822,0.328383,-0.328383,1.3822,841.963,497.736)">
                <path d="M32,24.008C31.995,28.393 28.385,31.998 24,31.998C19.611,31.998 16,28.387 16,23.998C16,21.557 17.118,19.244 19.032,17.728C19.048,17.72 19.056,17.704 19.072,17.696C19.12,17.664 19.16,17.632 19.2,17.596L19.208,17.596C22.038,15.469 25.962,15.469 28.792,17.596C31.622,19.723 28.792,17.588 28.8,17.596L28.808,17.596C28.831,17.612 28.853,17.631 28.872,17.652C28.929,17.69 28.982,17.733 29.032,17.78C30.912,19.298 32.005,21.591 32,24.008Z" style="fill:rgb(255,236,150);fill-rule:nonzero;"/>
            </g>
            <g transform="matrix(1.3822,0.328383,-0.328383,1.3822,841.963,497.736)">
                <path d="M24.13,32C24.13,32 23.999,32 23.999,32C19.61,32 15.999,28.389 15.999,24C15.999,21.558 17.116,19.246 19.03,17.73C19.05,17.72 19.06,17.7 19.07,17.7C19.12,17.66 19.16,17.63 19.2,17.6L19.21,17.6C20.588,16.556 22.271,15.994 24,16C25.356,15.995 26.69,16.343 27.87,17.01C26.186,17.023 24.551,17.581 23.21,18.6L23.2,18.6C23.16,18.63 23.12,18.66 23.07,18.7C23.06,18.7 23.05,18.72 23.03,18.73C21.117,20.246 20,22.558 20,24.999C20,27.906 21.585,30.593 24.13,32Z" style="fill:rgb(255,219,69);fill-rule:nonzero;"/>
            </g>
            <g transform="matrix(0.639764,0,0,0.639764,206.693,334.646)">
                <path d="M1014.85,317.172C1010.59,316.6 1006.39,315.571 1002.35,314.101C1001,313.61 1000.3,312.115 1000.79,310.763C1001.28,309.412 1002.77,308.713 1004.12,309.204C1008.02,310.619 1012.07,311.587 1016.18,312.09C1015.78,313.018 1015.46,313.986 1015.23,314.984C1015.05,315.713 1014.93,316.444 1014.85,317.172ZM1018.92,307.655C1018.53,306.859 1017.82,305.922 1017.02,304.947C1014.4,301.75 1010.73,298.411 1010.73,298.411C1009.67,297.444 1009.59,295.795 1010.56,294.731C1011.52,293.668 1013.17,293.59 1014.24,294.557C1014.24,294.557 1018.21,298.181 1021.05,301.647C1021.75,302.501 1022.38,303.355 1022.89,304.157C1021.39,305.124 1020.05,306.305 1018.92,307.655ZM1028.88,301.702C1028.11,297.471 1027.79,293.167 1027.94,288.865C1027.99,287.428 1029.19,286.301 1030.63,286.35C1032.07,286.399 1033.19,287.606 1033.14,289.043C1033,293.188 1033.33,297.334 1034.12,301.403C1032.39,301.243 1030.62,301.338 1028.88,301.702ZM1039.19,302.631C1039.83,302.021 1040.5,301.051 1041.18,299.99C1043.41,296.514 1045.45,291.989 1045.45,291.989C1046.04,290.678 1047.59,290.094 1048.89,290.685C1050.21,291.277 1050.79,292.821 1050.2,294.131C1050.2,294.131 1047.98,299.035 1045.56,302.805C1044.97,303.735 1044.35,304.596 1043.74,305.328C1042.35,304.195 1040.82,303.291 1039.19,302.631ZM1048.17,310.138C1051.88,308.155 1055.8,306.568 1059.85,305.404C1061.23,305.007 1062.67,305.806 1063.07,307.188C1063.47,308.57 1062.67,310.015 1061.29,310.412C1057.3,311.557 1053.46,313.15 1049.84,315.161C1049.45,313.453 1048.81,311.802 1047.93,310.266C1048.01,310.224 1048.09,310.182 1048.16,310.14C1048.49,310.532 1048.42,310.444 1048.17,310.138ZM1050.23,320.359C1051.01,320.778 1052.14,321.117 1053.36,321.436C1057.35,322.485 1062.29,323.024 1062.29,323.024C1063.71,323.181 1064.75,324.469 1064.59,325.898C1064.43,327.328 1063.15,328.36 1061.72,328.203C1061.72,328.203 1056.37,327.613 1052.03,326.476C1050.96,326.195 1049.95,325.873 1049.07,325.521C1049.36,324.78 1049.6,324.011 1049.79,323.217C1050.02,322.271 1050.16,321.315 1050.23,320.359ZM1045.65,331.012C1048.77,333.985 1051.56,337.286 1053.98,340.861C1054.78,342.052 1054.47,343.673 1053.28,344.478C1052.08,345.282 1050.46,344.968 1049.66,343.777C1047.33,340.33 1044.62,337.16 1041.57,334.329C1043.08,333.432 1044.46,332.315 1045.65,331.012ZM1036.79,336.311C1036.62,337.185 1036.65,338.376 1036.72,339.648C1036.96,343.771 1037.97,348.625 1037.97,348.625C1038.27,350.032 1037.36,351.413 1035.95,351.706C1034.54,351.999 1033.16,351.094 1032.87,349.686C1032.87,349.686 1031.78,344.421 1031.52,339.948C1031.46,338.841 1031.45,337.777 1031.51,336.825C1033.31,336.923 1035.09,336.741 1036.79,336.311ZM1025.22,335.288C1023.37,339.168 1021.1,342.838 1018.46,346.235C1017.57,347.37 1015.93,347.575 1014.8,346.692C1013.66,345.809 1013.46,344.171 1014.34,343.036C1016.89,339.756 1019.06,336.197 1020.81,332.429C1022.11,333.582 1023.59,334.552 1025.22,335.288ZM1017.47,328.481C1016.59,328.591 1015.46,328.986 1014.26,329.452C1010.42,330.952 1006.11,333.415 1006.11,333.415C1004.86,334.128 1003.27,333.693 1002.56,332.445C1001.84,331.196 1002.28,329.604 1003.53,328.891C1003.53,328.891 1008.2,326.224 1012.37,324.597C1013.41,324.192 1014.43,323.857 1015.36,323.621C1015.82,325.342 1016.53,326.98 1017.47,328.481ZM1055.27,359.7C1072.89,406.027 1051.07,457.507 1018.37,473.003C1000.85,481.307 982.506,482.098 965.929,480.651C914.694,476.183 882.381,423.968 900.373,365.926C903.188,356.842 906.352,351.285 908.022,348.445C919.159,329.509 937.961,316.823 969.206,313.482C975.638,312.794 981.822,312.66 987.725,313.032C989.733,315.633 992.933,316.746 996.712,318.102C1000.14,319.115 1003.61,320.02 1007.1,320.817C1002.74,322.254 998.446,323.855 994.212,325.618C991.795,326.625 989.708,328.273 988.17,330.373C987.985,333.615 988.523,333.402 990.135,334.133C993.957,335.858 999.342,342.232 1001.94,348.255C1003.35,351.513 1007.14,358.782 1011.96,357.576C1015.52,356.684 1018.32,350.01 1020.96,346.558C1022.87,343.871 1024.67,341.109 1026.36,338.277C1026.31,340.096 1026.29,341.914 1026.3,343.733C1024.45,346.82 1022.51,349.85 1020.48,352.819C1019.95,353.515 1019.44,354.188 1018.92,354.826C1019.43,354.191 1019.95,353.521 1020.49,352.829C1022.52,349.866 1024.46,346.84 1026.3,343.757C1026.32,348.352 1026.51,352.946 1026.88,357.528C1027.09,360.162 1028.03,362.68 1029.57,364.806C1032.59,366.961 1034.53,364.516 1035.72,363.222C1038.54,360.122 1044.27,357.786 1050.8,357.181C1054.34,356.835 1061.09,356.026 1061.43,351.071C1061.68,347.406 1057.52,342.154 1055.06,338.559C1053.1,335.915 1051.03,333.352 1048.86,330.876C1050.57,331.482 1052.3,332.063 1054.03,332.617C1056.39,335.323 1058.67,338.102 1060.87,340.95C1063.33,344.542 1065.39,347.532 1065.14,351.197C1064.59,355.616 1061.03,359.099 1056.6,359.57C1056.16,359.611 1055.72,359.654 1055.27,359.7ZM987.738,404.72C991.316,403.428 994.652,401.376 997.452,398.576C1002.6,393.432 1005.29,386.725 1005.29,379.568C1005.29,372.411 1002.6,365.705 997.452,360.561C992.308,355.416 985.602,352.724 978.444,352.724C971.287,352.724 964.581,355.416 959.437,360.561C954.293,365.705 951.6,372.411 951.6,379.568C951.6,391.044 958.877,400.986 969.151,404.729C969.151,404.729 969.151,408.712 969.151,408.712L955.11,408.712L955.11,427.298L969.151,427.298L969.151,441.339L987.738,441.339L987.738,427.298L1001.78,427.298L1001.78,408.712L987.738,408.712L987.738,404.72ZM970.187,379.568C970.187,377.372 971.037,375.289 972.583,373.602C974.144,372.078 976.201,371.311 978.444,371.311C982.986,371.311 986.702,375.027 986.702,379.568C986.702,381.765 985.852,383.848 984.306,385.535C982.745,387.059 980.688,387.826 978.444,387.826C973.903,387.826 970.187,384.11 970.187,379.568ZM987.176,335.523C987.83,337.303 989.524,338.683 991.576,339.597C995.407,341.322 998.853,348.497 1001.46,354.526C1003.27,358.594 1007.69,360.897 1012.06,360.059C1014.3,359.499 1015.99,358.159 1017.59,356.39C1015.99,358.155 1014.29,359.491 1012.06,360.05C1007.69,360.884 1003.27,358.582 1001.46,354.516C998.862,348.49 995.395,341.312 991.573,339.587C989.529,338.671 987.835,337.296 987.176,335.523ZM377.015,316.542C376.959,352.746 376.967,378.762 376.964,422.747C374.875,465.972 375.361,500.394 359.534,521.077C356.412,525.155 349.783,531.105 344.237,535.281C339.579,538.788 330.702,545.898 325.662,546.208C320.582,546.52 307.531,539.156 301.624,536.374C293.868,532.72 286.698,527.87 278.681,525.448C297.383,513.859 315.136,505.17 322.384,481.744C328.687,461.37 327.848,431.847 327.848,403.076C327.848,374.666 327.974,341.637 327.974,316.553L377.015,316.542ZM248.088,239.185L297.255,239.185L297.255,471.91C250.126,479.615 204.989,484.502 172.698,466.446C131.121,443.2 127.778,369.329 160.678,336.427C177.359,319.748 210.941,308.004 246.996,315.668L246.996,242.463C246.901,240.912 246.814,239.368 248.088,239.185ZM189.087,396.521C188.927,427.029 211.297,445.216 246.995,436.947L246.995,356.095C210.845,345.086 189.238,367.358 189.087,396.521ZM377.015,290.537L327.848,290.537L327.848,239.185L377.015,239.185L377.015,290.537ZM531.071,474.095C490.458,476.432 428.735,490.267 406.515,463.17C393.462,447.248 394.865,416.881 406.515,401.983C421.57,382.733 454.435,378.535 484.09,375.761C486.782,369.132 484.967,358.346 481.905,353.907C454.778,346.998 427.827,357.704 408.702,365.925L408.702,327.686C437.588,314.414 504.498,300.439 524.517,330.963C535.031,346.995 531.071,374.955 531.071,399.797L531.071,474.095ZM444.757,420.557C431.158,443.412 465.326,448.887 487.367,442.41L487.367,408.539C470.432,410.904 451.155,409.803 444.757,420.557ZM703.704,476.282L654.537,476.282L654.537,412.91C654.537,392.044 657.913,365.587 646.887,357.186C638.253,350.604 617.769,353.907 605.37,357.186L605.37,476.282L556.202,476.282L556.202,324.408C606.464,311.353 697.188,297.355 703.704,360.464C706.918,391.579 701.324,438.261 703.704,476.282ZM900.373,320.039C895.996,333.144 889.592,344.22 883.984,356.095C878.917,357.23 874.525,354.081 871.964,356.095C870.843,409.355 883.307,481.557 862.131,519.984C849.381,543.121 825.907,557.965 790.019,560.412C763.876,562.194 743.585,557.923 724.463,550.578L724.463,504.689C746.891,517.784 803.566,528.46 819.52,501.41C824.214,493.452 823.916,485.226 826.075,473.003C815.803,473.542 805.831,478.299 793.298,478.466C741.768,479.15 709.889,438.12 722.277,381.223C727.069,359.214 739.964,341.494 757.242,330.964C793.126,309.093 848.283,310.754 900.373,320.039ZM776.908,423.835C785.182,437.222 807.586,442.241 826.075,433.669C825.059,408.097 824.704,381.866 824.982,355.001C782.491,343.774 757.168,391.904 776.908,423.835ZM1007.15,320.8C1003.64,320.001 1000.17,319.094 996.717,318.081C992.614,316.62 989.188,315.416 987.237,312.302C985.091,308.4 985.917,303.494 989.222,300.51C994.149,296.18 999.903,290.663 1000.36,286.495C1000.77,282.763 1002.7,279.567 1006.88,280.067C1007.33,280.119 1007.76,280.226 1008.17,280.385C1005.85,280.625 1004.07,282.62 1004.1,284.955C1003.23,290.446 1000.42,295.449 996.187,299.052C993.527,301.41 988.311,307.294 990.947,311.501C992.898,314.615 1001.45,315.794 1005.56,317.255C1007.79,317.997 1010.05,318.637 1012.34,319.174C1010.6,319.69 1008.87,320.232 1007.15,320.8ZM996.906,307.921C998.098,308.204 998.836,309.402 998.553,310.594C998.27,311.787 997.071,312.525 995.879,312.242C994.687,311.958 993.949,310.76 994.232,309.568C994.515,308.375 995.713,307.637 996.906,307.921ZM1006.48,300.752C1007.67,301.035 1008.41,302.233 1008.12,303.426C1007.84,304.618 1006.64,305.356 1005.45,305.073C1004.26,304.79 1003.52,303.592 1003.8,302.399C1004.09,301.207 1005.28,300.469 1006.48,300.752ZM1008.46,288.958C1009.66,289.242 1010.39,290.44 1010.11,291.632C1009.83,292.825 1008.63,293.563 1007.44,293.279C1006.24,292.996 1005.51,291.798 1005.79,290.606C1006.07,289.413 1007.27,288.675 1008.46,288.958ZM1013.29,348.497C1014.48,348.78 1015.22,349.978 1014.94,351.171C1014.66,352.363 1013.46,353.101 1012.27,352.818C1011.07,352.535 1010.34,351.337 1010.62,350.144C1010.9,348.952 1012.1,348.214 1013.29,348.497ZM1009.43,337.179C1010.62,337.462 1011.36,338.66 1011.08,339.852C1010.79,341.045 1009.6,341.783 1008.4,341.5C1007.21,341.216 1006.47,340.018 1006.76,338.826C1007.04,337.633 1008.24,336.895 1009.43,337.179ZM998.829,331.645C1000.02,331.928 1000.76,333.126 1000.48,334.318C1000.19,335.511 998.995,336.249 997.802,335.966C996.61,335.682 995.872,334.484 996.155,333.292C996.438,332.099 997.636,331.361 998.829,331.645ZM1056.95,345.452C1058.14,345.735 1058.88,346.933 1058.59,348.126C1058.31,349.318 1057.11,350.056 1055.92,349.773C1054.73,349.49 1053.99,348.292 1054.27,347.099C1054.56,345.907 1055.75,345.169 1056.95,345.452ZM1044.99,345.626C1046.18,345.91 1046.92,347.108 1046.63,348.3C1046.35,349.492 1045.15,350.231 1043.96,349.947C1042.77,349.664 1042.03,348.466 1042.31,347.273C1042.6,346.081 1043.8,345.343 1044.99,345.626ZM1036.45,353.998C1037.64,354.282 1038.38,355.48 1038.1,356.672C1037.81,357.865 1036.61,358.603 1035.42,358.319C1034.23,358.036 1033.49,356.838 1033.77,355.646C1034.06,354.453 1035.26,353.715 1036.45,353.998ZM1052.02,302.806C1055.33,301.393 1058.67,300.081 1062.06,298.873C1066.23,297.644 1069.72,296.605 1073.13,297.976C1077.16,299.872 1079.37,304.327 1078.45,308.683C1077.01,315.083 1075.6,322.93 1077.67,326.571C1079.54,329.829 1079.87,333.544 1076.18,335.603C1075.79,335.822 1075.38,335.99 1074.95,336.106C1076.54,334.222 1076.85,331.553 1075.72,329.359C1073.4,324.391 1072.93,318.756 1074.38,313.471C1075.15,310.001 1075.68,302.721 1071.08,300.867C1067.67,299.496 1062.17,302.43 1057.99,303.659C1054.87,304.709 1051.79,305.886 1048.77,307.185C1049.87,305.742 1050.96,304.282 1052.02,302.806ZM1067.54,302.994C1068.73,303.277 1069.47,304.475 1069.19,305.667C1068.9,306.86 1067.71,307.598 1066.51,307.315C1065.32,307.031 1064.58,305.833 1064.87,304.641C1065.15,303.449 1066.35,302.71 1067.54,302.994ZM1064.01,314.421C1065.2,314.704 1065.94,315.902 1065.66,317.095C1065.37,318.287 1064.18,319.025 1062.98,318.742C1061.79,318.459 1061.05,317.261 1061.34,316.068C1061.62,314.876 1062.82,314.138 1064.01,314.421ZM1069.33,325.128C1070.53,325.411 1071.26,326.61 1070.98,327.802C1070.7,328.994 1069.5,329.732 1068.31,329.449C1067.12,329.166 1066.38,327.968 1066.66,326.775C1066.94,325.583 1068.14,324.845 1069.33,325.128ZM1030.43,279.799C1031.62,280.082 1032.36,281.28 1032.08,282.472C1031.8,283.665 1030.6,284.403 1029.41,284.12C1028.21,283.836 1027.48,282.638 1027.76,281.446C1028.04,280.253 1029.24,279.515 1030.43,279.799ZM1040.21,286.686C1041.4,286.969 1042.14,288.167 1041.86,289.36C1041.57,290.552 1040.38,291.29 1039.18,291.007C1037.99,290.724 1037.25,289.526 1037.54,288.333C1037.82,287.141 1039.02,286.403 1040.21,286.686ZM1052.04,284.931C1053.23,285.215 1053.97,286.413 1053.68,287.605C1053.4,288.798 1052.2,289.536 1051.01,289.252C1049.82,288.969 1049.08,287.771 1049.36,286.579C1049.65,285.386 1050.85,284.648 1052.04,284.931ZM1061.8,283.987C1060.06,279.99 1056.98,280.764 1055.22,281.124C1049.92,281.806 1044.54,280.528 1040.1,277.531C1037.04,275.73 1029.81,272.804 1026.62,276.611C1024.27,279.429 1025.83,285.734 1025.71,290.088C1025.71,293.409 1025.89,296.728 1026.24,300.03C1025.24,298.582 1024.17,297.049 1023.03,295.5C1022.61,291.929 1022.4,288.336 1022.41,284.74C1022.53,280.387 1022.62,276.755 1024.98,273.938C1028.03,270.691 1032.95,269.961 1036.81,272.183C1042.45,275.532 1049.47,279.301 1053.58,278.45C1057.25,277.68 1060.89,278.52 1061.71,282.664C1061.79,283.099 1061.83,283.544 1061.8,283.987Z" style="fill:rgb(255,61,99);"/>
            </g>
        </g>
    </g>
</svg>
