<?xml version="1.0" encoding="UTF-8" standalone="no"?>
<!DOCTYPE svg PUBLIC "-//W3C//DTD SVG 1.1//EN" "http://www.w3.org/Graphics/SVG/1.1/DTD/svg11.dtd">
<svg width="100%" height="100%" viewBox="0 0 364 461" version="1.1" xmlns="http://www.w3.org/2000/svg" xmlns:xlink="http://www.w3.org/1999/xlink" xml:space="preserve" xmlns:serif="http://www.serif.com/" style="fill-rule:evenodd;clip-rule:evenodd;stroke-linejoin:round;stroke-miterlimit:2;">
    <g transform="matrix(1,0,0,1,-3677.94,-4022.07)">
        <g transform="matrix(1,0,0,1,3269.32,3661.67)">
            <g transform="matrix(2.18332,0,0,2.18332,-236.056,-672.894)">
                <g>
                    <g transform="matrix(0.639764,0,0,0.639764,206.693,334.646)">
                        <path d="M377.015,316.542C376.959,352.746 376.967,378.762 376.964,422.747C374.875,465.972 375.361,500.394 359.534,521.077C356.412,525.155 349.783,531.105 344.237,535.281C339.579,538.788 330.702,545.898 325.662,546.208C320.582,546.52 307.531,539.156 301.624,536.374C293.868,532.72 286.698,527.87 278.681,525.448C297.383,513.859 315.136,505.17 322.384,481.744C328.687,461.37 327.848,431.847 327.848,403.076C327.848,374.666 327.974,341.637 327.974,316.553L377.015,316.542Z" style="fill:rgb(255,61,99);"/>
                    </g>
                    <g transform="matrix(0.639764,0,0,0.639764,206.693,334.646)">
                        <path d="M248.088,239.185L297.255,239.185L297.255,471.91C250.126,479.615 204.989,484.502 172.698,466.446C131.121,443.2 127.778,369.329 160.678,336.427C177.359,319.748 210.941,308.004 246.996,315.668L246.996,242.463C246.901,240.912 246.814,239.368 248.088,239.185ZM189.087,396.521C188.927,427.029 211.297,445.216 246.995,436.947L246.995,356.095C210.845,345.086 189.238,367.358 189.087,396.521Z" style="fill:rgb(255,61,99);"/>
                    </g>
                </g>
                <g transform="matrix(0.331728,0.0788119,-0.0788119,0.331728,445.308,312.162)">
                    <g>
                        <g transform="matrix(4.16667,-3.33067e-16,3.33067e-16,4.16667,-7.38767,456.593)">
                            <path d="M12.515,10.805C15.422,12.921 18.186,15.226 20.79,17.705C20.78,17.705 19.53,18.347 19.53,18.347C17.863,19.432 17.983,19.872 17.343,21.847C16.703,23.822 16.343,24.112 17.058,25.96L17.7,27.22C14.542,27.437 11.374,27.461 8.213,27.292C6.261,27.074 4.638,26.91 3.458,25.747C2.105,24.26 1.956,22.017 3.1,20.364C4.807,17.949 6.758,14.941 6.523,13.064C6.307,11.387 6.823,9.789 8.71,9.569C10.077,9.567 11.41,10 12.515,10.805Z" style="fill:rgb(255,115,141);fill-rule:nonzero;"/>
                        </g>
                        <g transform="matrix(4.16667,-1.11022e-16,1.11022e-16,4.16667,-7.38767,456.593)">
                            <path d="M10.265,24.952C9.622,24.878 9.16,24.295 9.235,23.652C9.309,23.009 9.892,22.547 10.535,22.622C12.542,22.854 14.569,22.838 16.573,22.576C17.215,22.492 17.804,22.945 17.888,23.587C17.972,24.229 17.519,24.818 16.877,24.902C14.684,25.19 12.463,25.206 10.265,24.952ZM12.304,17.206C11.738,16.893 11.532,16.178 11.845,15.611C12.158,15.045 12.873,14.839 13.44,15.152C13.44,15.152 15.56,16.326 17.164,17.549C17.954,18.151 18.617,18.782 18.95,19.304C19.298,19.85 19.138,20.576 18.592,20.924C18.046,21.272 17.32,21.112 16.972,20.566C16.748,20.214 16.273,19.82 15.741,19.414C14.262,18.286 12.304,17.206 12.304,17.206ZM7.238,22.811C7.79,22.811 8.238,23.259 8.238,23.811C8.238,24.363 7.79,24.811 7.238,24.811C6.686,24.811 6.238,24.363 6.238,23.811C6.238,23.259 6.686,22.811 7.238,22.811ZM10.685,18.674C11.237,18.674 11.685,19.122 11.685,19.674C11.685,20.226 11.237,20.674 10.685,20.674C10.133,20.674 9.685,20.226 9.685,19.674C9.685,19.122 10.133,18.674 10.685,18.674ZM10.328,13.3C10.88,13.3 11.328,13.748 11.328,14.3C11.328,14.852 10.88,15.3 10.328,15.3C9.776,15.3 9.328,14.852 9.328,14.3C9.328,13.748 9.776,13.3 10.328,13.3ZM9.309,9.574C8.316,9.921 7.745,10.98 8,12C8.19,14.497 7.48,16.981 6,19C5.08,20.31 3.407,23.431 5,25C6.179,26.161 10.05,25.787 12,26C13.703,26.15 15.415,26.175 17.122,26.076L17.7,27.21C14.542,27.424 11.374,27.448 8.213,27.282C6.263,27.069 4.637,26.898 3.458,25.737C2.112,24.251 1.963,22.016 3.1,20.364C4.808,17.954 6.755,14.938 6.523,13.064C6.311,11.387 6.823,9.786 8.71,9.569C8.909,9.546 9.11,9.547 9.309,9.574Z" style="fill:rgb(255,61,99);"/>
                        </g>
                        <g transform="matrix(4.16667,0,0,4.16667,-7.38767,456.593)">
                            <path d="M7.9,30.845C10.809,28.734 13.853,26.817 17.014,25.106C17.008,25.114 17.235,26.506 17.235,26.506C17.752,28.426 18.208,28.448 19.884,29.666C21.56,30.884 21.729,31.316 23.707,31.208L25.107,30.987C24.338,34.058 23.382,37.078 22.244,40.032C21.433,41.821 20.776,43.313 19.305,44.077C17.476,44.899 15.303,44.349 14.085,42.756C12.315,40.386 10.058,37.601 8.2,37.244C6.538,36.932 5.178,35.944 5.552,34.084C5.971,32.783 6.794,31.648 7.9,30.845Z" style="fill:rgb(255,115,141);fill-rule:nonzero;"/>
                        </g>
                        <g transform="matrix(4.16667,-1.11022e-16,1.11022e-16,4.16667,-7.38767,456.593)">
                            <path d="M20.667,37.355C20.399,37.944 19.702,38.204 19.113,37.935C18.524,37.667 18.264,36.97 18.533,36.381C19.37,34.544 19.979,32.611 20.346,30.626C20.464,29.989 21.077,29.568 21.713,29.685C22.35,29.803 22.771,30.416 22.654,31.052C22.252,33.226 21.585,35.343 20.667,37.355ZM13.925,33.023C13.452,33.465 12.709,33.44 12.266,32.968C11.824,32.495 11.849,31.752 12.321,31.309C12.321,31.309 14.091,29.655 15.75,28.508C16.568,27.942 17.374,27.507 17.974,27.352C18.602,27.19 19.242,27.568 19.403,28.195C19.565,28.823 19.187,29.463 18.56,29.624C18.156,29.728 17.634,30.058 17.085,30.437C15.555,31.495 13.925,33.023 13.925,33.023ZM18.641,38.883C19.193,38.883 19.641,39.331 19.641,39.883C19.641,40.435 19.193,40.883 18.641,40.883C18.089,40.883 17.641,40.435 17.641,39.883C17.641,39.331 18.089,38.883 18.641,38.883ZM15.771,34.326C16.323,34.326 16.771,34.774 16.771,35.326C16.771,35.878 16.323,36.326 15.771,36.326C15.219,36.326 14.771,35.878 14.771,35.326C14.771,34.774 15.219,34.326 15.771,34.326ZM10.55,33.005C11.102,33.005 11.55,33.453 11.55,34.005C11.55,34.557 11.102,35.005 10.55,35.005C9.998,35.005 9.55,34.557 9.55,34.005C9.55,33.453 9.998,33.005 10.55,33.005ZM5.74,33.514C6,35 6.21,34.846 7,35C8.854,35.358 11.877,37.59 13.641,39.959C14.6,41.239 17.015,44.03 19,43C20.469,42.238 21,39.023 21.8,37.235C22.599,35.259 23.283,33.238 23.848,31.183L25.105,30.983C24.333,34.053 23.377,37.073 22.242,40.028C21.442,41.816 20.772,43.31 19.303,44.073C17.474,44.894 15.302,44.344 14.083,42.752C12.318,40.382 10.052,37.598 8.198,37.24C6.537,36.924 5.172,35.94 5.55,34.08C5.589,33.884 5.653,33.694 5.74,33.514Z" style="fill:rgb(255,61,99);"/>
                        </g>
                        <g transform="matrix(4.16667,0,0,4.16667,-7.38767,456.593)">
                            <path d="M25.536,41.425C24.426,38.007 23.544,34.519 22.894,30.984C22.9,30.992 24.294,31.205 24.294,31.205C26.28,31.305 26.442,30.881 28.117,29.663C29.792,28.445 30.256,28.418 30.766,26.503L30.987,25.103C33.668,26.784 36.244,28.628 38.7,30.624C40.151,31.948 41.367,33.035 41.639,34.669C41.856,36.663 40.662,38.56 38.77,39.226C35.97,40.176 32.623,41.463 31.71,43.119C30.899,44.603 29.541,45.592 27.886,44.661C26.779,43.859 25.956,42.726 25.536,41.425Z" style="fill:rgb(255,115,141);fill-rule:nonzero;"/>
                        </g>
                        <g transform="matrix(4.16667,-1.11022e-16,1.11022e-16,4.16667,-7.38767,456.593)">
                            <path d="M35.671,31.302C36.148,31.741 36.179,32.483 35.741,32.96C35.302,33.437 34.56,33.468 34.083,33.03C32.596,31.662 30.947,30.483 29.173,29.519C28.604,29.209 28.393,28.497 28.702,27.928C29.012,27.359 29.724,27.148 30.293,27.457C32.237,28.514 34.043,29.805 35.671,31.302ZM29.467,36.37C29.742,36.956 29.489,37.655 28.903,37.93C28.317,38.205 27.618,37.952 27.343,37.366C27.343,37.366 26.316,35.173 25.737,33.24C25.452,32.288 25.287,31.387 25.325,30.767C25.365,30.12 25.922,29.628 26.568,29.668C27.215,29.708 27.707,30.265 27.667,30.911C27.641,31.329 27.793,31.927 27.985,32.567C28.518,34.349 29.467,36.37 29.467,36.37ZM37.45,33.005C38.002,33.005 38.45,33.453 38.45,34.005C38.45,34.557 38.002,35.005 37.45,35.005C36.898,35.005 36.45,34.557 36.45,34.005C36.45,33.453 36.898,33.005 37.45,33.005ZM32.229,34.326C32.781,34.326 33.229,34.774 33.229,35.326C33.229,35.878 32.781,36.326 32.229,36.326C31.677,36.326 31.229,35.878 31.229,35.326C31.229,34.774 31.677,34.326 32.229,34.326ZM29.359,38.883C29.911,38.883 30.359,39.331 30.359,39.883C30.359,40.435 29.911,40.883 29.359,40.883C28.807,40.883 28.359,40.435 28.359,39.883C28.359,39.331 28.807,38.883 29.359,38.883ZM27.406,44.306C29,45 29.609,43.7 30,43C30.913,41.348 33.178,39.729 35.977,38.784C37.491,38.264 40.367,37.206 40,35C39.729,33.368 37.36,31.5 35.908,30.181C34.276,28.81 32.565,27.535 30.785,26.363L30.985,25.106C33.665,26.789 36.241,28.632 38.7,30.624C40.152,31.942 41.368,33.037 41.639,34.669C41.855,36.663 40.661,38.559 38.77,39.226C35.97,40.172 32.623,41.467 31.71,43.119C30.9,44.6 29.543,45.6 27.887,44.661C27.712,44.563 27.551,44.444 27.406,44.306Z" style="fill:rgb(255,61,99);"/>
                        </g>
                        <g transform="matrix(4.16667,0,0,4.16667,-7.38767,456.593)">
                            <path d="M41.047,27.924C37.453,27.922 33.863,27.684 30.3,27.21C30.31,27.21 30.942,25.95 30.942,25.95C31.653,24.093 31.298,23.807 30.657,21.837C30.016,19.867 30.134,19.418 28.47,18.337L27.21,17.7C29.637,15.668 32.186,13.786 34.843,12.065C36.55,11.094 37.96,10.273 39.598,10.52C41.561,10.93 42.996,12.652 43.045,14.657C43.084,17.615 43.273,21.195 44.566,22.575C45.727,23.805 46.248,25.402 44.851,26.688C43.746,27.493 42.414,27.926 41.047,27.924Z" style="fill:rgb(255,115,141);fill-rule:nonzero;"/>
                        </g>
                        <g transform="matrix(4.16667,-1.11022e-16,1.11022e-16,4.16667,-7.38767,456.593)">
                            <path d="M34.552,15.157C35.116,14.839 35.832,15.039 36.15,15.603C36.468,16.167 36.268,16.883 35.704,17.201C33.944,18.193 32.312,19.397 30.846,20.787C30.376,21.232 29.633,21.212 29.187,20.742C28.742,20.272 28.762,19.529 29.232,19.083C30.838,17.562 32.625,16.243 34.552,15.157ZM37.455,22.623C38.098,22.543 38.684,23 38.764,23.642C38.844,24.285 38.387,24.871 37.745,24.951C37.745,24.951 35.34,25.249 33.323,25.202C32.329,25.179 31.421,25.058 30.844,24.83C30.242,24.592 29.946,23.91 30.184,23.308C30.422,22.706 31.104,22.41 31.706,22.648C32.094,22.801 32.71,22.841 33.378,22.857C35.238,22.9 37.455,22.623 37.455,22.623ZM37.672,13.3C38.224,13.3 38.672,13.748 38.672,14.3C38.672,14.852 38.224,15.3 37.672,15.3C37.12,15.3 36.672,14.852 36.672,14.3C36.672,13.748 37.12,13.3 37.672,13.3ZM37.315,18.674C37.867,18.674 38.315,19.122 38.315,19.674C38.315,20.226 37.867,20.674 37.315,20.674C36.763,20.674 36.315,20.226 36.315,19.674C36.315,19.122 36.763,18.674 37.315,18.674ZM40.762,22.811C41.314,22.811 41.762,23.259 41.762,23.811C41.762,24.363 41.314,24.811 40.762,24.811C40.21,24.811 39.762,24.363 39.762,23.811C39.762,23.259 40.21,22.811 40.762,22.811ZM44.365,27.036C44.867,26.045 44.722,24.844 44,24C42.468,22.064 41.674,19.645 41.761,17.178C41.735,15.578 41.211,12.333 39,12C37.364,11.754 35.261,13.612 33.559,14.585C31.751,15.713 30.009,16.946 28.344,18.277L27.21,17.7C29.639,15.67 32.188,13.789 34.843,12.065C36.543,11.092 37.962,10.274 39.598,10.52C41.561,10.931 42.995,12.652 43.045,14.657C43.08,17.611 43.277,21.196 44.566,22.575C45.724,23.808 46.252,25.402 44.851,26.688C44.704,26.824 44.541,26.941 44.365,27.036Z" style="fill:rgb(255,61,99);"/>
                        </g>
                        <g transform="matrix(4.16667,0,0,4.16667,-7.38767,456.593)">
                            <path d="M33,9C31.888,12.418 30.552,15.758 29,19C29,18.99 28,18 28,18C26.453,16.75 26.072,17 24,17C21.928,17 21.538,16.75 20,18L19,19C17.817,16.064 16.816,13.058 16,10C15.6,8.076 15.259,6.482 16,5C16.997,3.259 19.078,2.427 21,3C23.825,3.877 27.287,4.8 29,4C30.528,3.276 32.208,3.274 33,5C33.424,6.299 33.424,7.701 33,9Z" style="fill:rgb(255,115,141);fill-rule:nonzero;"/>
                        </g>
                        <g transform="matrix(4.16667,-1.11022e-16,1.11022e-16,4.16667,-7.38767,456.593)">
                            <path d="M18.85,11.232C18.722,10.597 19.133,9.978 19.768,9.85C20.403,9.722 21.022,10.133 21.15,10.768C21.549,12.748 22.191,14.672 23.059,16.496C23.338,17.08 23.089,17.781 22.504,18.059C21.92,18.338 21.219,18.089 20.941,17.504C19.99,15.507 19.287,13.401 18.85,11.232ZM26.848,10.778C26.971,10.142 27.586,9.725 28.222,9.848C28.858,9.971 29.275,10.586 29.152,11.222C29.152,11.222 28.692,13.601 28.024,15.505C27.695,16.442 27.3,17.268 26.905,17.747C26.493,18.246 25.753,18.317 25.253,17.905C24.754,17.493 24.683,16.753 25.095,16.253C25.361,15.932 25.589,15.358 25.81,14.728C26.426,12.972 26.848,10.778 26.848,10.778ZM19,7C19.552,7 20,7.448 20,8C20,8.552 19.552,9 19,9C18.448,9 18,8.552 18,8C18,7.448 18.448,7 19,7ZM24,9C24.552,9 25,9.448 25,10C25,10.552 24.552,11 24,11C23.448,11 23,10.552 23,10C23,9.448 23.448,9 24,9ZM29,7C29.552,7 30,7.448 30,8C30,8.552 29.552,9 29,9C28.448,9 28,8.552 28,8C28,7.448 28.448,7 29,7ZM33.18,5.57C32,4 30.73,4.66 30,5C27.745,5.851 25.255,5.851 23,5C21.47,4.53 18,4 17,6C16.26,7.48 17.6,10.08 18,12C18.346,13.455 18.77,14.89 19.27,16.3C18.68,15.77 18.05,15.21 17.39,14.65C16.835,13.129 16.371,11.576 16,10C15.6,8.08 15.26,6.48 16,5C16.998,3.26 19.078,2.428 21,3C23.82,3.88 27.29,4.8 29,4C30.53,3.28 32.21,3.27 33,5C33.084,5.182 33.144,5.373 33.18,5.57Z" style="fill:rgb(255,61,99);"/>
                        </g>
                    </g>
                    <g>
                        <g transform="matrix(4.16667,0,0,4.16667,-7.38767,456.593)">
                            <path d="M32,24.008C31.995,28.393 28.385,31.998 24,31.998C19.611,31.998 16,28.387 16,23.998C16,21.557 17.118,19.244 19.032,17.728C19.048,17.72 19.056,17.704 19.072,17.696C19.12,17.664 19.16,17.632 19.2,17.596L19.208,17.596C22.038,15.469 25.962,15.469 28.792,17.596C31.622,19.723 28.792,17.588 28.8,17.596L28.808,17.596C28.831,17.612 28.853,17.631 28.872,17.652C28.929,17.69 28.982,17.733 29.032,17.78C30.912,19.298 32.005,21.591 32,24.008Z" style="fill:rgb(255,236,150);fill-rule:nonzero;"/>
                        </g>
                        <g transform="matrix(4.16667,0,0,4.16667,-7.38767,456.593)">
                            <path d="M24.13,32C24.13,32 23.999,32 23.999,32C19.61,32 15.999,28.389 15.999,24C15.999,21.558 17.116,19.246 19.03,17.73C19.05,17.72 19.06,17.7 19.07,17.7C19.12,17.66 19.16,17.63 19.2,17.6L19.21,17.6C20.588,16.556 22.271,15.994 24,16C25.356,15.995 26.69,16.343 27.87,17.01C26.186,17.023 24.551,17.581 23.21,18.6L23.2,18.6C23.16,18.63 23.12,18.66 23.07,18.7C23.06,18.7 23.05,18.72 23.03,18.73C21.117,20.246 20,22.558 20,24.999C20,27.906 21.585,30.593 24.13,32Z" style="fill:rgb(255,219,69);fill-rule:nonzero;"/>
                        </g>
                    </g>
                </g>
            </g>
        </g>
    </g>
</svg>
